# xmcd
#
# Track frame offsets:
#	150
#	19517
#	34090
#	52956
#	70971
#	90183
#	106874
#	129333
#	149019
#	171060
#
# Disc length: 2525 seconds
#
# Revision: 11
# Processed by: cddbd v1.5.2PL0 Copyright (c) Steve Scherf et al.
# Submitted via: Jack! The Knife 20 Magnifico
#
DISCID=7909db0a
DTITLE=Children Of Bodom - Halo Of Blood
DYEAR=2013
DGENRE=Metal
TTITLE0=Waste Of Skin
TTITLE1=Halo Of Blood
TTITLE2=Scream For Silence
TTITLE3=Transference
TTITLE4=Bodom Blue Moon (The Second Coming)
TTITLE5=The Days Are Numbered
TTITLE6=Dead Mans Hand On You
TTITLE7=Damage Beyond Repair
TTITLE8=All Twisted
TTITLE9=One Bottle And A Knee Deep
EXTD=Peter Tägtgren
EXTT0=Laiho, Latvala, Raatikainen, Seppälä, Wirman
EXTT1=Laiho, Latvala, Raatikainen, Seppälä, Wirman
EXTT2=Laiho, Latvala, Raatikainen, Seppälä, Wirman
EXTT3=Laiho, Latvala, Raatikainen, Seppälä, Wirman
EXTT4=Laiho, Latvala, Raatikainen, Seppälä, Wirman
EXTT5=Laiho, Latvala, Raatikainen, Seppälä, Wirman
EXTT6=Laiho, Latvala, Raatikainen, Seppälä, Wirman
EXTT7=Laiho, Latvala, Raatikainen, Seppälä, Wirman
EXTT8=Laiho, Latvala, Raatikainen, Seppälä, Wirman
EXTT9=Laiho, Latvala, Raatikainen, Seppälä, Wirman
PLAYORDER=
